<?xml version="1.0" encoding="utf-8"?>
<!-- Generator: Adobe Illustrator 16.0.0, SVG Export Plug-In . SVG Version: 6.00 Build 0)  -->
<!DOCTYPE svg PUBLIC "-//W3C//DTD SVG 1.1//EN" "http://www.w3.org/Graphics/SVG/1.1/DTD/svg11.dtd">
<svg version="1.1" xmlns="http://www.w3.org/2000/svg" xmlns:xlink="http://www.w3.org/1999/xlink" x="0px" y="0px" width="163px"
	 height="51.667px" viewBox="0 0 163 51.667" enable-background="new 0 0 163 51.667" xml:space="preserve">
<g id="BG">
</g>
<g id="Object">
	<g>
		<g>
			<g>
				<g>
					<g>
						<path fill="#B44480" d="M4.169,50.833c-0.573,0-1.121-0.266-1.475-0.73c-0.408-0.539-0.493-1.26-0.217-1.879
							c0.554-1.24,5.492-12.217,8.495-15.297c0.174-0.18,0.354-0.352,0.539-0.514c-0.185-0.164-0.365-0.336-0.539-0.514
							C7.97,28.82,3.031,17.841,2.478,16.601c-0.276-0.617-0.191-1.338,0.217-1.877c0.41-0.54,1.081-0.811,1.75-0.711
							c0.153,0.023,3.779,0.57,7.82,1.493c7.686,1.751,9.812,3.224,10.742,4.181c2.409,2.473,2.669,9.723,2.669,12.727
							c0,3.002-0.26,10.254-2.669,12.729c-0.931,0.953-3.057,2.428-10.742,4.18c-4.041,0.92-7.667,1.467-7.82,1.492
							C4.353,50.826,4.262,50.833,4.169,50.833z M7.325,18.25c1.88,3.939,4.673,9.393,6.304,11.063
							c0.594,0.611,1.277,1.08,2.032,1.387c0.695,0.283,1.149,0.963,1.149,1.715s-0.454,1.43-1.149,1.713
							c-0.755,0.313-1.438,0.777-2.032,1.387c-1.631,1.676-4.423,7.123-6.304,11.064c7.612-1.391,12.146-3.119,13.025-4.023
							c0.673-0.689,1.618-4.291,1.618-10.141s-0.945-9.451-1.618-10.141l0,0C19.47,21.369,14.938,19.64,7.325,18.25z"/>
					</g>
					<g>
						<path fill="#B44480" d="M49.638,50.833c-0.093,0-0.184-0.008-0.276-0.02c-0.151-0.025-3.776-0.572-7.819-1.492
							c-7.685-1.752-9.81-3.227-10.741-4.18c-2.409-2.475-2.67-9.727-2.67-12.729c0-3.004,0.261-10.254,2.67-12.727l0,0
							c0.932-0.957,3.057-2.43,10.741-4.181c4.043-0.923,7.668-1.47,7.819-1.493c0.672-0.1,1.341,0.172,1.751,0.711
							s0.493,1.26,0.217,1.877c-0.552,1.24-5.493,12.219-8.495,15.299c-0.174,0.178-0.353,0.35-0.538,0.514
							c0.186,0.162,0.364,0.334,0.538,0.514c3.002,3.08,7.943,14.057,8.495,15.297c0.276,0.619,0.193,1.34-0.217,1.879
							C50.758,50.568,50.211,50.833,49.638,50.833z M46.481,18.25c-7.613,1.393-12.146,3.12-13.025,4.023l0,0
							c-0.672,0.689-1.618,4.291-1.618,10.141s0.946,9.451,1.618,10.141c0.88,0.904,5.412,2.633,13.024,4.023
							c-1.88-3.941-4.67-9.389-6.301-11.064c-0.594-0.609-1.278-1.074-2.034-1.387c-0.695-0.283-1.148-0.961-1.148-1.713
							s0.453-1.432,1.148-1.715c0.756-0.307,1.44-0.775,2.034-1.387C41.811,27.638,44.601,22.189,46.481,18.25z M32.128,20.979
							h0.004H32.128z"/>
					</g>
				</g>
			</g>
			<g>
				<g>
					<path fill="#B44480" d="M26.903,15.967c-4.173,0-7.566-3.395-7.566-7.567c0-4.172,3.394-7.566,7.566-7.566
						c4.172,0,7.568,3.395,7.568,7.566C34.472,12.573,31.075,15.967,26.903,15.967z M26.903,4.541c-2.128,0-3.86,1.73-3.86,3.859
						s1.732,3.859,3.86,3.859c2.129,0,3.86-1.73,3.86-3.859S29.032,4.541,26.903,4.541z"/>
				</g>
			</g>
		</g>
		<g>
			<g>
				<g>
					<path fill="#FFF0E9" d="M65.68,17.717h2.135v12.351h-2.395v-6.749l-2.846,6.749h-1.751l-2.86-6.661v6.661h-2.379V17.717h2.152
						l3.989,9.107L65.68,17.717z"/>
					<path fill="#FFF0E9" d="M83.217,30.068l-1.177-2.74h-5.78l-1.179,2.74h-2.724l5.673-12.351h2.184l5.676,12.351H83.217z
						 M77.163,25.263h3.99l-1.995-4.63L77.163,25.263z"/>
					<path fill="#FFF0E9" d="M91.865,29.853c-0.862-0.249-1.574-0.597-2.141-1.048l0.868-1.945c1.189,0.832,2.521,1.248,3.987,1.248
						c0.788,0,1.393-0.123,1.814-0.372c0.423-0.248,0.633-0.598,0.633-1.049c0-0.394-0.193-0.704-0.582-0.929
						c-0.387-0.226-1.066-0.441-2.037-0.649c-1.088-0.219-1.95-0.489-2.593-0.807c-0.642-0.319-1.11-0.707-1.406-1.163
						c-0.294-0.457-0.442-1.026-0.442-1.709c0-0.74,0.205-1.405,0.616-1.993c0.409-0.592,0.987-1.049,1.725-1.379
						c0.74-0.332,1.597-0.497,2.569-0.497c0.877,0,1.722,0.127,2.531,0.382c0.811,0.253,1.46,0.602,1.944,1.043l-0.867,1.94
						c-1.086-0.831-2.283-1.249-3.591-1.249c-0.693,0-1.251,0.138-1.665,0.418c-0.415,0.278-0.624,0.654-0.624,1.127
						c0,0.277,0.079,0.509,0.232,0.694c0.157,0.185,0.42,0.349,0.789,0.492c0.372,0.146,0.898,0.288,1.579,0.426
						c1.585,0.346,2.726,0.797,3.426,1.354c0.701,0.555,1.049,1.312,1.049,2.271c0,1.156-0.451,2.074-1.353,2.751
						c-0.901,0.676-2.156,1.015-3.765,1.015C93.624,30.226,92.725,30.101,91.865,29.853z"/>
					<path fill="#FFF0E9" d="M106.731,29.853c-0.863-0.249-1.577-0.597-2.145-1.048l0.868-1.945c1.192,0.832,2.521,1.248,3.99,1.248
						c0.785,0,1.391-0.123,1.814-0.372c0.419-0.248,0.631-0.598,0.631-1.049c0-0.394-0.194-0.704-0.582-0.929
						c-0.386-0.226-1.065-0.441-2.039-0.649c-1.085-0.219-1.951-0.489-2.593-0.807c-0.642-0.319-1.109-0.707-1.403-1.163
						c-0.296-0.457-0.442-1.026-0.442-1.709c0-0.74,0.206-1.405,0.616-1.993c0.41-0.592,0.984-1.049,1.726-1.379
						c0.74-0.332,1.595-0.497,2.566-0.497c0.88,0,1.725,0.127,2.534,0.382c0.811,0.253,1.456,0.602,1.942,1.043l-0.867,1.94
						c-1.089-0.831-2.284-1.249-3.593-1.249c-0.694,0-1.247,0.138-1.664,0.418c-0.417,0.278-0.625,0.654-0.625,1.127
						c0,0.277,0.079,0.509,0.236,0.694c0.156,0.185,0.418,0.349,0.789,0.492c0.369,0.146,0.895,0.288,1.579,0.426
						c1.583,0.346,2.726,0.797,3.426,1.354c0.699,0.555,1.049,1.312,1.049,2.271c0,1.156-0.451,2.074-1.353,2.751
						c-0.901,0.676-2.158,1.015-3.764,1.015C108.492,30.226,107.593,30.101,106.731,29.853z"/>
					<path fill="#FFF0E9" d="M129.239,30.068l-1.181-2.74h-5.775l-1.182,2.74h-2.723l5.671-12.351h2.187l5.673,12.351H129.239z
						 M123.186,25.263h3.987l-1.993-4.63L123.186,25.263z"/>
					<path fill="#FFF0E9" d="M146.689,23.252v6.054c-0.602,0.288-1.306,0.514-2.107,0.675c-0.805,0.162-1.63,0.245-2.474,0.245
						c-1.306,0-2.438-0.252-3.399-0.765c-0.959-0.51-1.698-1.238-2.213-2.185c-0.513-0.949-0.77-2.081-0.77-3.4
						c0-1.282,0.257-2.401,0.77-3.348c0.516-0.948,1.246-1.679,2.186-2.196c0.943-0.515,2.045-0.772,3.306-0.772
						c0.89,0,1.721,0.124,2.488,0.366c0.769,0.243,1.403,0.583,1.899,1.021l-0.866,1.943c-0.578-0.416-1.138-0.717-1.683-0.901
						c-0.542-0.185-1.134-0.277-1.77-0.277c-2.382,0-3.573,1.387-3.573,4.164c0,2.833,1.243,4.249,3.731,4.249
						c0.68,0,1.363-0.087,2.046-0.261v-2.722h-2.43v-1.889H146.689z"/>
					<path fill="#FFF0E9" d="M152.482,30.068V17.717H161v2.097h-5.88v2.916h5.515v2.118h-5.515v3.123H161v2.097H152.482z"/>
				</g>
				<g>
					<path fill="#FFF0E9" d="M66.355,48.8c-1.086-0.336-1.974-0.813-2.67-1.424c-1.088,0.927-2.317,1.391-3.695,1.391
						c-0.867,0-1.633-0.145-2.299-0.436c-0.667-0.288-1.182-0.698-1.551-1.224c-0.373-0.524-0.558-1.122-0.558-1.792
						c0-0.743,0.199-1.397,0.593-1.959c0.391-0.568,1.011-1.096,1.854-1.579c-0.798-0.848-1.196-1.715-1.196-2.604
						c0-0.594,0.15-1.113,0.451-1.57c0.301-0.459,0.72-0.814,1.257-1.066c0.538-0.258,1.159-0.382,1.865-0.382
						c0.983,0,1.77,0.251,2.358,0.751c0.59,0.505,0.884,1.18,0.884,2.022c0,0.648-0.177,1.229-0.536,1.735
						c-0.358,0.512-0.919,0.985-1.685,1.423l2.135,2.101c0.44-0.939,0.694-1.975,0.762-3.108h2.169
						c-0.092,1.784-0.55,3.329-1.369,4.633c0.718,0.615,1.544,1.038,2.48,1.284L66.355,48.8z M58.655,46.335
						c0.348,0.29,0.817,0.435,1.404,0.435c0.787,0,1.51-0.278,2.17-0.831l-2.846-2.814c-0.427,0.277-0.742,0.587-0.945,0.915
						c-0.203,0.327-0.303,0.703-0.303,1.121C58.135,45.655,58.309,46.049,58.655,46.335z M59.523,38.245
						c-0.232,0.225-0.349,0.528-0.349,0.908c0,0.233,0.068,0.465,0.201,0.697c0.132,0.232,0.373,0.532,0.718,0.901
						c0.532-0.292,0.912-0.566,1.138-0.834c0.225-0.265,0.337-0.56,0.337-0.883c0-0.347-0.104-0.62-0.312-0.825
						c-0.207-0.203-0.48-0.306-0.815-0.306C60.059,37.904,59.753,38.019,59.523,38.245z"/>
					<path fill="#FFF0E9" d="M81.804,48.408c-0.86-0.246-1.575-0.597-2.143-1.048l0.868-1.94c1.189,0.833,2.521,1.246,3.989,1.246
						c0.787,0,1.393-0.124,1.812-0.372c0.424-0.245,0.636-0.6,0.636-1.052c0-0.391-0.194-0.697-0.582-0.924
						c-0.389-0.228-1.067-0.442-2.038-0.655c-1.088-0.219-1.952-0.484-2.594-0.805c-0.642-0.316-1.109-0.704-1.407-1.163
						c-0.294-0.456-0.44-1.025-0.44-1.708c0-0.738,0.205-1.408,0.615-1.997c0.41-0.588,0.987-1.052,1.727-1.379
						c0.74-0.328,1.595-0.492,2.567-0.492c0.879,0,1.722,0.127,2.532,0.383c0.809,0.254,1.458,0.602,1.943,1.038l-0.867,1.941
						c-1.086-0.826-2.282-1.244-3.59-1.244c-0.694,0-1.249,0.137-1.664,0.418c-0.417,0.273-0.625,0.648-0.625,1.124
						c0,0.275,0.076,0.51,0.232,0.693c0.157,0.186,0.419,0.352,0.79,0.498c0.37,0.145,0.896,0.282,1.579,0.424
						c1.583,0.349,2.726,0.794,3.425,1.353c0.699,0.556,1.049,1.312,1.049,2.272c0,1.158-0.45,2.074-1.353,2.75
						c-0.903,0.675-2.156,1.011-3.763,1.011C83.564,48.781,82.666,48.659,81.804,48.408z"/>
					<path fill="#FFF0E9" d="M95.049,36.278h5.602c1.364,0,2.426,0.328,3.184,0.987c0.756,0.659,1.135,1.555,1.135,2.689
						c0,1.119-0.381,2.013-1.144,2.677c-0.763,0.667-1.822,0.998-3.175,0.998h-2.896v4.997h-2.706V36.278z M100.303,41.566
						c1.411,0,2.118-0.533,2.118-1.594c0-1.079-0.707-1.613-2.118-1.613h-2.549v3.207H100.303z"/>
					<path fill="#FFF0E9" d="M118.345,48.626l-1.181-2.743h-5.774l-1.182,2.743h-2.723l5.674-12.348h2.184l5.674,12.348H118.345z
						 M112.292,43.82h3.99l-1.995-4.633L112.292,43.82z"/>
				</g>
			</g>
		</g>
	</g>
</g>
</svg>
